inDegrees=yes
name=ik_lifting_orientations
DataType=double
version=3
OpenSimVersion=4.5-2024-01-10-34fd6af
endheader
time	pelvis_tilt	pelvis_list	pelvis_rotation	pelvis_tx	pelvis_ty	pelvis_tz	hip_flexion_r	hip_adduction_r	hip_rotation_r	knee_angle_r	knee_angle_r_beta	ankle_angle_r	subtalar_angle_r	mtp_angle_r	hip_flexion_l	hip_adduction_l	hip_rotation_l	knee_angle_l	knee_angle_l_beta	ankle_angle_l	subtalar_angle_l	mtp_angle_l	lumbar_extension	lumbar_bending	lumbar_rotation	arm_flex_r	arm_add_r	arm_rot_r	elbow_flex_r	pro_sup_r	wrist_flex_r	wrist_dev_r	arm_flex_l	arm_add_l	arm_rot_l	elbow_flex_l	pro_sup_l	wrist_flex_l	wrist_dev_l
1.65	3.090896509687439	10.4559618696159	3.551680347304784	0	0.9399999998679526	0	42.46924875043893	-10.13339095932829	0	61.52781232150646	1.073862906559424	-5.042478196424238	0	0	42.46924875043893	-10.13339095932829	0	61.52781232150646	1.073862906559424	-5.042478196424238	0	0	10.25782911794109	-4.501766717807462	-12.01714834103747	104.78751096015	4.085381514914495	89.99154562547724	54.00490905734065	0.4140217211769868	0	0	0	-11.0576927305953	0	89.61995141896321	0.4140217211769868	0	0
1.66	3.109492073961623	10.45921703055657	3.550472745985433	0	0.9399999998679526	0	42.46970053246213	-10.13330760930111	0	61.52759887221871	1.073859181166566	-5.042443553688685	0	0	42.46970053246213	-10.13330760930111	0	61.52759887221871	1.073859181166566	-5.042443553688685	0	0	10.3152328931933	-4.270301758300201	-11.95157852651291	104.7291204696727	4.109499123531688	89.99138560927624	54.16447330395951	0.4139703914709764	0	0	0	-11.05805250511766	0	89.61999851546088	0.4139703914709764	0	0
1.67	2.300929607599115	11.24482416350992	3.431513364311221	0	0.9399999998679526	0	42.47066884271798	-10.13313425917006	0	61.52713037807631	1.073851004401255	-5.042371927271724	0	0	42.47066884271798	-10.13313425917006	0	61.52713037807631	1.073851004401255	-5.042371927271724	0	0	11.80512712448285	-4.402377312972079	-11.86853646490535	103.819500307668	5.735717472779671	89.99103429223487	52.50966459183542	0.4138593470188697	0	0	0	-11.05883690626054	0	89.62010040198138	0.4138593470188697	0	0
1.68	2.319298623402314	11.23570676710363	3.428873456048574	0	0.9399999998679526	0	42.47134808421351	-10.13300909084155	0	61.52680948706319	1.073845403796536	-5.042319932317551	0	0	42.47134808421351	-10.13300909084155	0	61.52680948706319	1.073845403796536	-5.042319932317551	0	0	11.7807397339606	-4.470868685976417	-11.69550447760139	103.0132044714915	5.574673883095643	89.99106045223974	51.74615044131769	0.4137821662808763	0	0	0	-11.05937789722458	0	89.62017121755267	0.4137821662808763	0	0
1.69	3.095600619838192	12.06406028289007	3.411893925754534	0	0.9399999998679526	0	42.47224425229825	-10.132846178189	0	61.52638157613643	1.073837935341959	-5.042252442056924	0	0	42.47224425229825	-10.132846178189	0	61.52638157613643	1.073837935341959	-5.042252442056924	0	0	11.71837065087634	-4.764355179065935	-11.54375215630531	102.0737194398846	5.276850057368845	89.99012924809986	52.11485281031472	0.4136799088405566	0	0	0	-11.06009718384923	0	89.62026504173046	0.4136799088405566	0	0
1.7	3.103072711359331	12.07163524088089	3.427094383511039	0	0.9399999998679526	0	42.47343780280301	-10.13262698983889	0	61.52581686637854	1.073828079297366	-5.042161489360477	0	0	42.47343780280301	-10.13262698983889	0	61.52581686637854	1.073828079297366	-5.042161489360477	0	0	12.400538309203	-4.995331483271789	-10.49642591133157	101.037776192906	4.341591651537948	89.98991024162042	50.2816259682147	0.4135441874529874	0	0	0	-11.06104905328576	0	89.62038957005082	0.4135441874529874	0	0
1.71	3.08158859775205	12.06385181341501	3.434577243589079	0	0.9399999998679526	0	42.47416971164385	-10.13249250757406	0	61.52547097918922	1.073822042427071	-5.042105693195175	0	0	42.47416971164385	-10.13249250757406	0	61.52547097918922	1.073822042427071	-5.042105693195175	0	0	12.41013233394413	-4.936190830867382	-10.6518407641327	101.8549412012212	4.470613328990432	89.98988847929182	51.05229733327284	0.4134609907361202	0	0	0	-11.06163234760173	0	89.62046590545806	0.4134609907361202	0	0
1.72	2.2898155128149	12.85454242067902	3.317994817425254	0	0.9399999998679526	0	42.47521270653579	-10.13230127753389	0	61.52497749448575	1.073813429494188	-5.042026400032759	0	0	42.47521270653579	-10.13230127753389	0	61.52497749448575	1.073813429494188	-5.042026400032759	0	0	13.17212383675801	-5.682720841134299	-10.18544897932581	101.8608014984001	4.476844722788397	89.98988274021096	51.05005895366638	0.4133423694720776	0	0	0	-11.06246435876046	0	89.62057474391806	0.4133423694720776	0	0
1.73	3.078835729981222	13.68489114149099	3.323579249229938	0	0.9399999998679526	0	42.47578464861966	-10.13219654450218	0	61.5247068309376	1.073808705524107	-5.041982994254847	0	0	42.47578464861966	-10.13219654450218	0	61.5247068309376	1.073808705524107	-5.041982994254847	0	0	12.86850714175322	-6.987973769832449	-10.46896009802082	101.6515169012673	4.131720890542357	89.98973508967158	51.75626814361284	0.4132773110813409	0	0	0	-11.06292072277066	0	89.62063443688395	0.4132773110813409	0	0
1.74	3.874581448640158	12.89340448123081	3.424032306961732	0	0.9399999998679526	0	42.4768104715743	-10.13201027658814	0	61.52421811173856	1.073800175764966	-5.041905926021881	0	0	42.4768104715743	-10.13201027658814	0	61.52421811173856	1.073800175764966	-5.041905926021881	0	0	12.16587313462514	-5.742959552856267	-10.73125545542594	101.4095042310717	3.125426822321951	89.98927553152637	52.44843422856153	0.4131603151709123	0	0	0	-11.06374324106361	0	89.62074178403708	0.4131603151709123	0	0
1.75	3.888753405237482	12.87315378701991	3.42741893052251	0	0.9399999998679526	0	42.47750789381561	-10.13188346988211	0	61.52388647045441	1.073794387532622	-5.041853459697076	0	0	42.47750789381561	-10.13188346988211	0	61.52388647045441	1.073794387532622	-5.041853459697076	0	0	13.55042217165138	-5.148187623551868	-10.29390480591415	100.4870692677388	1.811035617147066	89.98836703193713	53.73923464010302	0.4130808244789478	0	0	0	-11.06430176392333	0	89.62081471906026	0.4130808244789478	0	0
1.76	3.889329686818408	12.88776229701809	3.402906017450121	0	0.9399999998679526	0	42.47818367514726	-10.13176041292613	0	61.52356565579728	1.073788788260567	-5.041802537666471	0	0	42.47818367514726	-10.13176041292613	0	61.52356565579728	1.073788788260567	-5.041802537666471	0	0	12.98838236611996	-4.99367570333593	-9.46357913165067	100.3378888895402	0.7445316343146827	89.9879119816294	51.93924678368257	0.4130038458310126	0	0	0	-11.06484235807607	0	89.62088534920974	0.4130038458310126	0	0
1.77	3.882526659096712	12.89185628410116	3.437741773273936	0	0.9399999998679526	0	42.47892765554044	-10.13162455871124	0	61.52321350071846	1.073782641994964	-5.041746302048735	0	0	42.47892765554044	-10.13162455871124	0	61.52321350071846	1.073782641994964	-5.041746302048735	0	0	13.7602218763779	-5.533309026209866	-8.959514479777104	99.59096016460111	-1.30043900810746	89.9858629383678	53.32439370041872	0.4129191887132331	0	0	0	-11.06543632384007	0	89.62096302457813	0.4129191887132331	0	0
1.78	3.891436743639276	12.92860824703902	3.441447270127296	0	0.9399999998679526	0	42.47906933790473	-10.13159871813104	0	61.5231464384519	1.073781471537609	-5.04173561134298	0	0	42.47906933790473	-10.13159871813104	0	61.5231464384519	1.073781471537609	-5.04173561134298	0	0	13.74702073830513	-5.577246557430822	-8.950899274021895	99.58570507752954	-1.310771732940032	89.98581847706741	53.32472128877564	0.4129030655077924	0	0	0	-11.06554944686557	0	89.62097781808818	0.4129030655077924	0	0
1.79	3.091899436754141	12.05766677768954	3.427323841928406	0	0.9399999998679526	0	42.48021535039704	-10.13139027590822	0	61.52260261947524	1.073771980105931	-5.041649413447443	0	0	42.48021535039704	-10.13139027590822	0	61.52260261947524	1.073771980105931	-5.041649413447443	0	0	15.27714351596972	-4.524396511562592	-7.920561893871599	98.88950930925284	-3.250628867013373	89.98463140221637	52.62716170525167	0.4127725221569353	0	0	0	-11.06646615523889	0	89.62109759541137	0.4127725221569353	0	0
1.8	3.088211821077981	12.06564493132944	3.42842667935073	0	0.9399999998679526	0	42.48115627928914	-10.13121849578112	0	61.52215781161514	1.073764216744233	-5.041578343555382	0	0	42.48115627928914	-10.13121849578112	0	61.52215781161514	1.073764216744233	-5.041578343555382	0	0	15.31218312031512	-4.265534693043421	-7.832752709645561	98.52858870832802	-2.676198539210782	89.98410008639266	51.85856467039456	0.4126654876378331	0	0	0	-11.06721688247578	0	89.62119580269638	0.4126654876378331	0	0
1.81	3.082614188908262	12.06691618647707	3.442697043994178	0	0.9399999998679526	0	42.48191737577556	-10.13107969966485	0	61.52179793331609	1.073757935683009	-5.041520944388282	0	0	42.48191737577556	-10.13107969966485	0	61.52179793331609	1.073757935683009	-5.041520944388282	0	0	15.8837076484545	-4.525118767460571	-8.155586296337402	99.08134615259367	-3.012820210272245	89.98312469574162	52.88147891102599	0.4125788953335799	0	0	0	-11.06782429728029	0	89.62127525365473	0.4125788953335799	0	0
1.82	3.086769587726735	12.06127673769007	3.427303552548036	0	0.9399999998679526	0	42.4827133843117	-10.13093561470088	0	61.52141943871261	1.073751329705977	-5.04146145209573	0	0	42.4827133843117	-10.13093561470088	0	61.52141943871261	1.073751329705977	-5.04146145209573	0	0	16.53046304679098	-4.464929063177637	-7.096552431469994	97.93761209066025	-4.238022459533159	89.98189118658433	53.04686548060015	0.4124881289967953	0	0	0	-11.06846217508459	0	89.62135853441076	0.4124881289967953	0	0
1.83	2.298702290115747	11.23304190005636	3.439432491491936	0	0.9399999998679526	0	42.48349511209132	-10.13079368986394	0	61.52104888437808	1.073744862312782	-5.041402830690109	0	0	42.48349511209132	-10.13079368986394	0	61.52104888437808	1.073744862312782	-5.041402830690109	0	0	17.93120670887025	-3.778098809170398	-7.414444395565583	98.02932196180853	-5.287155878322643	89.98006346942468	54.62039281824028	0.4123990911148711	0	0	0	-11.06908729582072	0	89.62144022925855	0.4123990911148711	0	0
1.84	2.053265196177726	11.23595740270648	4.285301476671296	0	0.9399999998679526	0	42.48441906214566	-10.13062629121043	0	61.52061039645672	1.073737209254824	-5.04133372625062	0	0	42.48441906214566	-10.13062629121043	0	61.52061039645672	1.073737209254824	-5.04133372625062	0	0	18.11030268872077	-2.940158772826838	-9.230050899632525	98.3091020705675	-4.143319577033159	89.98293369414354	54.22110221819406	0.4122937990445312	0	0	0	-11.06982684707308	0	89.62153683779763	0.4122937990445312	0	0
1.85	1.856882548582549	11.35973347581181	5.072834348303176	0	0.9399999998679526	0	42.48502387826785	-10.13051715100023	0	61.52032254223347	1.073732185250862	-5.041288712194481	0	0	42.48502387826785	-10.13051715100023	0	61.52032254223347	1.073732185250862	-5.041288712194481	0	0	18.35124884478403	-2.793835948800479	-9.907197126521053	99.0627277350666	-4.103768987054106	89.98156070096141	54.71330916727845	0.412224794717983	0	0	0	-11.07031198861119	0	89.6216001512762	0.412224794717983	0	0
1.86	2.670635256118457	10.56348429970168	5.180184458822556	0	0.9399999998679526	0	42.4858005260021	-10.13037656204166	0	61.51995412341706	1.07372575512949	-5.041230706207127	0	0	42.4858005260021	-10.13037656204166	0	61.51995412341706	1.07372575512949	-5.041230706207127	0	0	17.60045051398125	-2.049141897191592	-10.4218193977295	99.07388858760915	-4.105465117475349	89.98158398753975	54.71290682707946	0.4121362919987897	0	0	0	-11.07093356524735	0	89.62168135509705	0.4121362919987897	0	0
